<svg width="231" height="231" viewBox="0 0 231 231" fill="none" xmlns="http://www.w3.org/2000/svg">
<g clip-path="url(#clip0_413_13)">
<path d="M115.286 0C66.475 0 26.763 40.041 26.763 89.26C26.763 137.359 108.788 225.535 112.279 229.267C113.057 230.097 114.145 230.57 115.285 230.57C116.425 230.57 117.512 230.098 118.291 229.267C121.783 225.535 203.807 137.359 203.807 89.26C203.808 40.041 164.096 0 115.286 0ZM129.806 203.688C122.168 212.743 108.404 212.743 100.766 203.688C76.3313 174.719 34.999 121.022 34.999 89.26C34.999 44.583 71.016 8.235 115.286 8.235C159.556 8.235 195.573 44.583 195.573 89.26C195.573 121.023 154.241 174.72 129.806 203.688Z" fill="white"/>
<path d="M184.624 66.245C183.603 65.781 159.436 55.033 142.048 65.069C124.662 75.107 121.886 101.415 121.777 102.531C121.604 104.284 122.569 105.955 124.173 106.682C124.873 106.999 136.396 112.126 149.175 112.126C155.082 112.126 161.258 111.03 166.752 107.858C184.138 97.82 186.914 71.512 187.023 70.396C187.196 68.641 186.231 66.972 184.624 66.245ZM162.635 100.725C151.938 106.907 136.703 102.552 130.432 100.301C131.618 93.745 135.468 78.378 146.165 72.202C156.862 66.02 172.097 70.376 178.368 72.626C177.182 79.182 173.332 94.549 162.635 100.725Z" fill="white"/>
<path d="M108.794 102.53C108.685 101.414 105.909 75.106 88.523 65.068C71.139 55.036 46.97 65.78 45.947 66.244C44.341 66.972 43.376 68.64 43.549 70.395C43.657 71.511 46.434 97.819 63.82 107.857C69.317 111.029 75.49 112.125 81.397 112.125C94.175 112.125 105.699 106.999 106.399 106.681C108.002 105.954 108.967 104.284 108.794 102.53ZM67.937 100.725C57.235 94.547 53.387 79.172 52.203 72.62C58.461 70.36 73.666 66 84.406 72.202C95.103 78.378 98.953 93.745 100.139 100.301C93.869 102.555 78.64 106.907 67.937 100.725Z" fill="white"/>
<path d="M99 145V145C108.205 151.829 120.795 151.829 130 145V145" stroke="white" stroke-width="7"/>
</g>
<defs>
<clipPath id="clip0_413_13">
<rect width="230.57" height="230.57" fill="white"/>
</clipPath>
</defs>
</svg>
